<svg width="1920" height="1080" viewBox="0 0 1920 1080" fill="none" xmlns="http://www.w3.org/2000/svg">
<g clip-path="url(#clip0_59_2)">
<rect width="1920" height="1080" fill="#161828"/>
<path d="M-624.524 376.323L-182.704 -112.838C-15.6025 -297.831 219.138 -439.993 491.397 -521.083L1211.63 -735.618" stroke="#3DF3D2" stroke-opacity="0.25" stroke-width="0.876605" stroke-miterlimit="10" stroke-linecap="round"/>
<path d="M-593.134 407.339L-151.314 -81.8225C15.7872 -266.815 250.528 -408.977 522.787 -490.067L1243.02 -704.602" stroke="#3DF3D2" stroke-opacity="0.25" stroke-width="0.876605" stroke-miterlimit="10" stroke-linecap="round"/>
<path d="M-561.743 438.355L-119.923 -50.8067C47.1783 -235.8 281.919 -377.962 554.178 -459.051L1274.41 -673.587" stroke="#3DF3D2" stroke-opacity="0.25" stroke-width="0.876605" stroke-miterlimit="10" stroke-linecap="round"/>
<path d="M-530.354 469.371L-88.5333 -19.7907C78.568 -204.784 313.308 -346.946 585.567 -428.035L1305.8 -642.571" stroke="#3DF3D2" stroke-opacity="0.25" stroke-width="0.876605" stroke-miterlimit="10" stroke-linecap="round"/>
<path d="M-500.706 498.664L-58.8859 9.50229C108.215 -175.491 342.956 -317.653 615.215 -398.742L1335.41 -613.312" stroke="#3DF3D2" stroke-opacity="0.25" stroke-width="0.876605" stroke-miterlimit="10" stroke-linecap="round"/>
<path d="M-469.316 529.68L-27.4962 40.5183C139.605 -144.475 374.345 -286.637 646.604 -367.726L1366.8 -582.296" stroke="#3DF3D2" stroke-opacity="0.25" stroke-width="0.876605" stroke-miterlimit="10" stroke-linecap="round"/>
<path d="M-437.926 560.696L3.89439 71.5341C170.996 -113.459 405.736 -255.621 677.995 -336.71L1398.19 -551.28" stroke="#3DF3D2" stroke-opacity="0.25" stroke-width="0.876605" stroke-miterlimit="10" stroke-linecap="round"/>
<path d="M-406.536 591.712L35.2845 102.55C202.386 -82.4428 437.126 -224.605 709.385 -305.694L1429.58 -520.264" stroke="#3DF3D2" stroke-opacity="0.25" stroke-width="0.876605" stroke-miterlimit="10" stroke-linecap="round"/>
<path d="M-376.889 621.004L64.9315 131.843C232.033 -53.1499 466.773 -195.312 739.032 -276.402L1459.23 -490.971" stroke="#3DF3D2" stroke-opacity="0.25" stroke-width="0.876605" stroke-miterlimit="10" stroke-linecap="round"/>
<path d="M-345.499 652.02L96.3211 162.859C263.422 -22.1339 498.163 -164.296 770.422 -245.386L1490.62 -459.955" stroke="#3DF3D2" stroke-opacity="0.25" stroke-width="0.876605" stroke-miterlimit="10" stroke-linecap="round"/>
<path d="M-314.108 683.036L127.712 193.875C294.814 8.88205 529.554 -133.28 801.813 -214.37L1522.01 -428.939" stroke="#3DF3D2" stroke-opacity="0.25" stroke-width="0.876605" stroke-miterlimit="10" stroke-linecap="round"/>
<path d="M-282.719 714.052L159.101 224.891C326.203 39.8979 560.943 -102.264 833.202 -183.354L1553.4 -397.924" stroke="#3DF3D2" stroke-opacity="0.25" stroke-width="0.876605" stroke-miterlimit="10" stroke-linecap="round"/>
<path d="M-253.071 743.345L188.749 254.184C355.85 69.1908 590.591 -72.9712 862.85 -154.061L1583.04 -368.631" stroke="#3DF3D2" stroke-opacity="0.25" stroke-width="0.876605" stroke-miterlimit="10" stroke-linecap="round"/>
<path d="M-221.682 774.361L220.139 285.2C387.24 100.207 621.98 -41.9551 894.239 -123.045L1614.43 -337.615" stroke="#3DF3D2" stroke-opacity="0.25" stroke-width="0.876605" stroke-miterlimit="10" stroke-linecap="round"/>
<path d="M-190.291 805.377L251.53 316.216C418.631 131.223 653.371 -10.9392 925.63 -92.0288L1645.82 -306.599" stroke="#3DF3D2" stroke-opacity="0.25" stroke-width="0.876605" stroke-miterlimit="10" stroke-linecap="round"/>
<path d="M-158.901 836.393L282.919 347.232C450.021 162.239 684.761 20.0768 957.02 -61.0128L1677.25 -275.548" stroke="#3DF3D2" stroke-opacity="0.25" stroke-width="0.876605" stroke-miterlimit="10" stroke-linecap="round"/>
<path d="M-127.51 867.409L314.31 378.248C481.412 193.255 716.152 51.0928 988.411 -29.9968L1708.64 -244.532" stroke="#3DF3D2" stroke-opacity="0.25" stroke-width="0.876605" stroke-miterlimit="10" stroke-linecap="round"/>
<path d="M-96.1196 898.425L345.701 409.264C512.802 224.271 747.542 82.1086 1019.8 1.01903L1740.03 -213.516" stroke="#3DF3D2" stroke-opacity="0.25" stroke-width="0.876605" stroke-miterlimit="10" stroke-linecap="round"/>
<path d="M-64.7295 929.441L377.091 440.28C544.192 255.287 778.932 113.125 1051.19 32.035L1771.42 -182.5" stroke="#3DF3D2" stroke-opacity="0.25" stroke-width="0.876605" stroke-miterlimit="10" stroke-linecap="round"/>
<path d="M-33.3389 960.457L408.481 471.295C575.583 286.302 810.323 144.14 1082.58 63.0509L1802.81 -151.485" stroke="#3DF3D2" stroke-opacity="0.25" stroke-width="0.876605" stroke-miterlimit="10" stroke-linecap="round"/>
<path d="M-3.6919 989.75L438.128 500.588C605.23 315.595 839.97 173.433 1112.23 92.3439L1832.46 -122.192" stroke="#3DF3D2" stroke-opacity="0.25" stroke-width="0.876605" stroke-miterlimit="10" stroke-linecap="round"/>
<path d="M27.6977 1020.77L469.518 531.604C636.619 346.611 871.36 204.449 1143.62 123.36L1863.85 -91.1756" stroke="#3DF3D2" stroke-opacity="0.25" stroke-width="0.876605" stroke-miterlimit="10" stroke-linecap="round"/>
<path d="M59.0889 1051.78L500.909 562.62C668.01 377.627 902.751 235.465 1175.01 154.376L1895.24 -60.1597" stroke="#3DF3D2" stroke-opacity="0.25" stroke-width="0.876605" stroke-miterlimit="10" stroke-linecap="round"/>
<path d="M90.4785 1082.8L532.299 593.636C699.4 408.643 934.14 266.481 1206.4 185.392L1926.63 -29.1436" stroke="#3DF3D2" stroke-opacity="0.25" stroke-width="0.876605" stroke-miterlimit="10" stroke-linecap="round"/>
<path d="M120.125 1112.09L561.946 622.929C729.047 437.936 963.787 295.774 1236.05 214.684L1956.27 0.148967" stroke="#3DF3D2" stroke-opacity="0.25" stroke-width="0.876605" stroke-miterlimit="10" stroke-linecap="round"/>
<path d="M151.515 1143.11L593.335 653.945C760.437 468.952 995.177 326.79 1267.44 245.701L1987.66 31.1651" stroke="#3DF3D2" stroke-opacity="0.25" stroke-width="0.876605" stroke-miterlimit="10" stroke-linecap="round"/>
<path d="M182.906 1174.12L624.726 684.961C791.827 499.968 1026.57 357.806 1298.83 276.716L2019.06 62.1809" stroke="#3DF3D2" stroke-opacity="0.25" stroke-width="0.876605" stroke-miterlimit="10" stroke-linecap="round"/>
<path d="M214.296 1205.14L656.116 715.977C823.217 530.984 1057.96 388.822 1330.22 307.733L2050.45 93.1971" stroke="#3DF3D2" stroke-opacity="0.25" stroke-width="0.876605" stroke-miterlimit="10" stroke-linecap="round"/>
<path d="M243.943 1234.43L685.763 745.27C852.864 560.277 1087.6 418.115 1359.86 337.025L2080.09 122.49" stroke="#3DF3D2" stroke-opacity="0.25" stroke-width="0.876605" stroke-miterlimit="10" stroke-linecap="round"/>
<path d="M275.333 1265.45L717.153 776.286C884.254 591.293 1118.99 449.131 1391.25 368.041L2111.48 153.506" stroke="#3DF3D2" stroke-opacity="0.25" stroke-width="0.876605" stroke-miterlimit="10" stroke-linecap="round"/>
<path d="M306.723 1296.46L748.543 807.301C915.645 622.309 1150.39 480.147 1422.64 399.057L2142.87 184.522" stroke="#3DF3D2" stroke-opacity="0.25" stroke-width="0.876605" stroke-miterlimit="10" stroke-linecap="round"/>
<path d="M338.113 1327.48L779.933 838.318C947.035 653.325 1181.78 511.163 1454.03 430.073L2174.26 215.538" stroke="#3DF3D2" stroke-opacity="0.25" stroke-width="0.876605" stroke-miterlimit="10" stroke-linecap="round"/>
<path d="M362.045 1354.68L803.865 865.514C970.966 680.521 1205.71 538.359 1477.97 457.269L2198.19 242.734" stroke="#3DF3D2" stroke-opacity="0.25" stroke-width="0.876605" stroke-miterlimit="10" stroke-linecap="round"/>
<path d="M393.435 1385.69L835.255 896.53C1002.36 711.537 1237.1 569.375 1509.36 488.285L2229.58 273.75" stroke="#3DF3D2" stroke-opacity="0.25" stroke-width="0.876605" stroke-miterlimit="10" stroke-linecap="round"/>
<path d="M424.825 1416.71L866.645 927.546C1033.75 742.553 1268.49 600.391 1540.75 519.301L2260.97 304.766" stroke="#3DF3D2" stroke-opacity="0.25" stroke-width="0.876605" stroke-miterlimit="10" stroke-linecap="round"/>
<path d="M456.215 1447.72L898.036 958.561C1065.14 773.569 1299.88 631.407 1572.14 550.317L2292.36 335.782" stroke="#3DF3D2" stroke-opacity="0.25" stroke-width="0.876605" stroke-miterlimit="10" stroke-linecap="round"/>
<path d="M485.863 1477.02L927.683 987.854C1094.78 802.861 1329.52 660.699 1601.78 579.61L2322.01 365.074" stroke="#3DF3D2" stroke-opacity="0.25" stroke-width="0.876605" stroke-miterlimit="10" stroke-linecap="round"/>
<path d="M517.252 1508.03L959.073 1018.87C1126.17 833.877 1360.91 691.715 1633.17 610.626L2353.4 396.09" stroke="#3DF3D2" stroke-opacity="0.25" stroke-width="0.876605" stroke-miterlimit="10" stroke-linecap="round"/>
<path d="M548.643 1539.05L990.463 1049.89C1157.56 864.894 1392.3 722.732 1664.56 641.642L2384.79 427.107" stroke="#3DF3D2" stroke-opacity="0.25" stroke-width="0.876605" stroke-miterlimit="10" stroke-linecap="round"/>
<path d="M580.033 1570.06L1021.85 1080.9C1188.95 895.91 1423.7 753.748 1695.95 672.658L2416.18 458.123" stroke="#3DF3D2" stroke-opacity="0.25" stroke-width="0.876605" stroke-miterlimit="10" stroke-linecap="round"/>
<path d="M609.68 1599.36L1051.5 1110.2C1218.6 925.202 1453.34 783.04 1725.6 701.951L2445.83 487.415" stroke="#3DF3D2" stroke-opacity="0.25" stroke-width="0.876605" stroke-miterlimit="10" stroke-linecap="round"/>
<path d="M641.069 1630.37L1082.89 1141.21C1249.99 956.218 1484.73 814.056 1756.99 732.966L2477.22 518.431" stroke="#3DF3D2" stroke-opacity="0.25" stroke-width="0.876605" stroke-miterlimit="10" stroke-linecap="round"/>
<path d="M672.461 1661.39L1114.28 1172.23C1281.38 987.234 1516.12 845.072 1788.38 763.983L2508.61 549.447" stroke="#3DF3D2" stroke-opacity="0.25" stroke-width="0.876605" stroke-miterlimit="10" stroke-linecap="round"/>
<path d="M703.851 1692.4L1145.67 1203.24C1312.77 1018.25 1547.51 876.088 1819.77 794.998L2540 580.463" stroke="#3DF3D2" stroke-opacity="0.25" stroke-width="0.876605" stroke-miterlimit="10" stroke-linecap="round"/>
</g>
<defs>
<clipPath id="clip0_59_2">
<rect width="1920" height="1080" fill="white"/>
</clipPath>
</defs>
</svg>
